HIERARCHY
ROOT Hips
{
	OFFSET 0.000000 100.481300 0.000000
	CHANNELS 6 Xposition Yposition Zposition Xrotation Yrotation Zrotation
	JOINT Spine
	{
		OFFSET -0.279200 12.230698 -2.892100
		CHANNELS 3 Xrotation Yrotation Zrotation
		JOINT Spine1
		{
			OFFSET -0.325700 14.269203 -3.374200
			CHANNELS 3 Xrotation Yrotation Zrotation
			JOINT Spine2
			{
				OFFSET -0.372300 16.307602 -0.352600
				CHANNELS 3 Xrotation Yrotation Zrotation
				JOINT Neck
				{
					OFFSET -0.418800 17.814194 8.416900
					CHANNELS 3 Xrotation Yrotation Zrotation
					JOINT Head
					{
						OFFSET 0.000000 7.031097 3.806800
						CHANNELS 3 Xrotation Yrotation Zrotation
						JOINT HeadTop_End
						{
							OFFSET 0.000000 24.646606 12.978600
							CHANNELS 3 Xrotation Yrotation Zrotation
							End Site
							{
								OFFSET 0.000000 27.854965 0.000000
							}
						}
					}
				}
				JOINT LeftShoulder
				{
					OFFSET 16.952999 14.495407 -7.737500
					CHANNELS 3 Xrotation Yrotation Zrotation
					JOINT LeftArm
					{
						OFFSET 9.308998 -2.777710 0.208600
						CHANNELS 3 Xrotation Yrotation Zrotation
						JOINT LeftForeArm
						{
							OFFSET 29.972298 0.000000 0.000000
							CHANNELS 3 Xrotation Yrotation Zrotation
							JOINT LeftHand
							{
								OFFSET 26.026505 0.000000 0.000000
								CHANNELS 3 Xrotation Yrotation Zrotation
								JOINT LeftHandThumb1
								{
									OFFSET 12.240501 -7.147949 9.207150
									CHANNELS 3 Xrotation Yrotation Zrotation
									JOINT LeftHandThumb2
									{
										OFFSET 4.138618 -2.389435 2.389433
										CHANNELS 3 Xrotation Yrotation Zrotation
										JOINT LeftHandThumb3
										{
											OFFSET 2.726913 -1.574387 1.574386
											CHANNELS 3 Xrotation Yrotation Zrotation
											JOINT LeftHandThumb4
											{
												OFFSET 3.941010 -2.275345 2.275342
												CHANNELS 3 Xrotation Yrotation Zrotation
												End Site
												{
													OFFSET -0.005798 5.087799 0.009903
												}
											}
										}
									}
								}
								JOINT LeftHandIndex1
								{
									OFFSET 24.424698 -1.985611 5.953459
									CHANNELS 3 Xrotation Yrotation Zrotation
									JOINT LeftHandIndex2
									{
										OFFSET 6.426697 0.000000 0.000000
										CHANNELS 3 Xrotation Yrotation Zrotation
										JOINT LeftHandIndex3
										{
											OFFSET 5.337898 0.000000 0.000000
											CHANNELS 3 Xrotation Yrotation Zrotation
											JOINT LeftHandIndex4
											{
												OFFSET 4.409401 0.000000 0.000000
												CHANNELS 3 Xrotation Yrotation Zrotation
												End Site
												{
													OFFSET 0.000000 4.409363 0.014373
												}
											}
										}
									}
								}
								JOINT LeftHandMiddle1
								{
									OFFSET 23.810104 0.000000 0.000000
									CHANNELS 3 Xrotation Yrotation Zrotation
									JOINT LeftHandMiddle2
									{
										OFFSET 7.176498 0.000000 0.000000
										CHANNELS 3 Xrotation Yrotation Zrotation
										JOINT LeftHandMiddle3
										{
											OFFSET 6.774902 0.000000 0.000000
											CHANNELS 3 Xrotation Yrotation Zrotation
											JOINT LeftHandMiddle4
											{
												OFFSET 5.403328 0.000000 0.000000
												CHANNELS 3 Xrotation Yrotation Zrotation
												End Site
												{
													OFFSET -0.027702 5.403244 0.017414
												}
											}
										}
									}
								}
								JOINT LeftHandRing1
								{
									OFFSET 22.908401 -0.839279 -6.020567
									CHANNELS 3 Xrotation Yrotation Zrotation
									JOINT LeftHandRing2
									{
										OFFSET 6.337502 0.000000 0.000000
										CHANNELS 3 Xrotation Yrotation Zrotation
										JOINT LeftHandRing3
										{
											OFFSET 5.779297 0.000000 0.000000
											CHANNELS 3 Xrotation Yrotation Zrotation
											JOINT LeftHandRing4
											{
												OFFSET 4.965698 0.000000 0.000000
												CHANNELS 3 Xrotation Yrotation Zrotation
												End Site
												{
													OFFSET 0.000000 4.965668 0.016186
												}
											}
										}
									}
								}
								JOINT LeftHandPinky1
								{
									OFFSET 20.037003 -1.530319 -10.950146
									CHANNELS 3 Xrotation Yrotation Zrotation
									JOINT LeftHandPinky2
									{
										OFFSET 5.254700 0.000000 0.000000
										CHANNELS 3 Xrotation Yrotation Zrotation
										JOINT LeftHandPinky3
										{
											OFFSET 4.810204 0.000000 0.000000
											CHANNELS 3 Xrotation Yrotation Zrotation
											JOINT LeftHandPinky4
											{
												OFFSET 3.647202 0.000000 0.000000
												CHANNELS 3 Xrotation Yrotation Zrotation
												End Site
												{
													OFFSET 0.000000 3.647186 0.011889
												}
											}
										}
									}
								}
							}
						}
					}
				}
				JOINT RightShoulder
				{
					OFFSET -15.141001 14.495407 -7.737500
					CHANNELS 3 Xrotation Yrotation Zrotation
					JOINT RightArm
					{
						OFFSET -9.308998 -2.777710 0.208500
						CHANNELS 3 Xrotation Yrotation Zrotation
						JOINT RightForeArm
						{
							OFFSET -29.972300 0.000000 0.000000
							CHANNELS 3 Xrotation Yrotation Zrotation
							JOINT RightHand
							{
								OFFSET -26.026505 0.000000 0.000000
								CHANNELS 3 Xrotation Yrotation Zrotation
								JOINT RightHandThumb1
								{
									OFFSET -12.240601 -7.148026 9.207092
									CHANNELS 3 Xrotation Yrotation Zrotation
									JOINT RightHandThumb2
									{
										OFFSET -4.138618 -2.389435 2.389433
										CHANNELS 3 Xrotation Yrotation Zrotation
										JOINT RightHandThumb3
										{
											OFFSET -2.726974 -1.574417 1.574421
											CHANNELS 3 Xrotation Yrotation Zrotation
											JOINT RightHandThumb4
											{
												OFFSET -3.941010 -2.275345 2.275343
												CHANNELS 3 Xrotation Yrotation Zrotation
												End Site
												{
													OFFSET 0.005814 5.087799 0.009927
												}
											}
										}
									}
								}
								JOINT RightHandIndex1
								{
									OFFSET -24.424698 -1.985657 5.953444
									CHANNELS 3 Xrotation Yrotation Zrotation
									JOINT RightHandIndex2
									{
										OFFSET -6.426697 0.000000 0.000000
										CHANNELS 3 Xrotation Yrotation Zrotation
										JOINT RightHandIndex3
										{
											OFFSET -5.337898 0.000000 0.000000
											CHANNELS 3 Xrotation Yrotation Zrotation
											JOINT RightHandIndex4
											{
												OFFSET -4.409401 0.000000 0.000000
												CHANNELS 3 Xrotation Yrotation Zrotation
												End Site
												{
													OFFSET 0.000000 4.409363 0.014408
												}
											}
										}
									}
								}
								JOINT RightHandMiddle1
								{
									OFFSET -23.810097 0.000000 0.000000
									CHANNELS 3 Xrotation Yrotation Zrotation
									JOINT RightHandMiddle2
									{
										OFFSET -7.176498 0.000000 0.000000
										CHANNELS 3 Xrotation Yrotation Zrotation
										JOINT RightHandMiddle3
										{
											OFFSET -6.774902 0.000000 0.000000
											CHANNELS 3 Xrotation Yrotation Zrotation
											JOINT RightHandMiddle4
											{
												OFFSET -5.403328 0.000000 0.000000
												CHANNELS 3 Xrotation Yrotation Zrotation
												End Site
												{
													OFFSET 0.027702 5.403244 0.017457
												}
											}
										}
									}
								}
								JOINT RightHandRing1
								{
									OFFSET -22.908302 -0.839325 -6.020576
									CHANNELS 3 Xrotation Yrotation Zrotation
									JOINT RightHandRing2
									{
										OFFSET -6.337502 0.000000 0.000000
										CHANNELS 3 Xrotation Yrotation Zrotation
										JOINT RightHandRing3
										{
											OFFSET -5.779297 0.000000 0.000000
											CHANNELS 3 Xrotation Yrotation Zrotation
											JOINT RightHandRing4
											{
												OFFSET -4.965698 0.000000 0.000000
												CHANNELS 3 Xrotation Yrotation Zrotation
												End Site
												{
													OFFSET 0.000000 4.965668 0.016226
												}
											}
										}
									}
								}
								JOINT RightHandPinky1
								{
									OFFSET -20.037003 -1.530334 -10.950259
									CHANNELS 3 Xrotation Yrotation Zrotation
									JOINT RightHandPinky2
									{
										OFFSET -5.254700 0.000000 0.000000
										CHANNELS 3 Xrotation Yrotation Zrotation
										JOINT RightHandPinky3
										{
											OFFSET -4.810204 0.000000 0.000000
											CHANNELS 3 Xrotation Yrotation Zrotation
											JOINT RightHandPinky4
											{
												OFFSET -3.647202 0.000000 0.000000
												CHANNELS 3 Xrotation Yrotation Zrotation
												End Site
												{
													OFFSET 0.000000 3.647186 0.011917
												}
											}
										}
									}
								}
							}
						}
					}
				}
			}
		}
	}
	JOINT LeftUpLeg
	{
		OFFSET 15.427100 -6.655098 0.678600
		CHANNELS 3 Xrotation Yrotation Zrotation
		JOINT LeftLeg
		{
			OFFSET 4.081073 -39.591068 13.024000
			CHANNELS 3 Xrotation Yrotation Zrotation
			JOINT LeftFoot
			{
				OFFSET -4.081074 -37.707932 -15.979700
				CHANNELS 3 Xrotation Yrotation Zrotation
				JOINT LeftToeBase
				{
					OFFSET 5.346399 -15.068900 20.645000
					CHANNELS 3 Xrotation Yrotation Zrotation
					JOINT LeftToe_End
					{
						OFFSET 2.754700 0.931300 11.300900
						CHANNELS 3 Xrotation Yrotation Zrotation
						End Site
						{
							OFFSET 0.000000 11.669021 0.000000
						}
					}
				}
			}
		}
	}
	JOINT RightUpLeg
	{
		OFFSET -15.569500 -6.655098 0.678600
		CHANNELS 3 Xrotation Yrotation Zrotation
		JOINT RightLeg
		{
			OFFSET -4.081825 -39.591045 13.023800
			CHANNELS 3 Xrotation Yrotation Zrotation
			JOINT RightFoot
			{
				OFFSET 4.081824 -37.707954 -15.979600
				CHANNELS 3 Xrotation Yrotation Zrotation
				JOINT RightToeBase
				{
					OFFSET -5.346400 -15.068900 20.645000
					CHANNELS 3 Xrotation Yrotation Zrotation
					JOINT RightToe_End
					{
						OFFSET -2.754700 0.931300 11.300900
						CHANNELS 3 Xrotation Yrotation Zrotation
						End Site
						{
							OFFSET 0.000000 11.669021 0.000000
						}
					}
				}
			}
		}
	}
}
MOTION
Frames: 6
Frame Time: 0.033333
-2.891371 74.354858 11.035137 -25.643378 -34.821776 -1.524328 14.776486 -0.401167 -4.141708 29.514538 -1.721869 -6.705810 29.514549 -1.721859 -6.705817 1.865577 4.451096 -6.518794 2.113171 7.328644 1.554784 -0.000001 0.000000 -0.000002 -4.113472 1.671423 0.666194 -27.705793 8.108605 5.973631 -11.421888 -18.011666 -9.829108 -3.601873 -16.375602 34.301736 9.163662 4.813984 -5.499036 -0.335200 0.032520 0.783606 0.000010 -0.000011 0.000011 -0.000001 -0.000003 0.000002 -0.901892 -6.981022 -3.808505 0.035454 0.810293 -16.419104 -0.000002 0.000012 -0.000000 0.000000 -0.000000 -0.000000 1.947814 9.683013 -14.540047 -0.450504 -1.566640 -21.881361 -0.000002 0.000011 -0.000002 -0.000000 0.000001 -0.000000 2.605793 14.896817 -31.345558 -0.576900 -2.712344 -32.011970 -0.000000 0.000003 0.000007 -0.000000 -0.000002 -0.000002 4.170504 18.495025 -34.987682 -0.706810 -5.788552 -39.373356 0.000003 0.000003 0.000004 0.000001 -0.000002 -0.000001 -5.378338 -12.971012 -1.368813 -23.271061 -14.249969 -1.670372 -4.396307 27.833070 3.351022 1.715220 5.883122 -37.145492 -8.895909 -4.903103 -0.383585 7.904841 -19.192524 -2.856720 -0.000001 0.000004 -0.000015 -0.000002 -0.000001 -0.000002 -1.085519 -1.215510 4.525176 0.143274 -1.119230 16.942368 0.000002 -0.000000 0.000005 0.000002 0.000001 0.000002 -0.663633 -2.903941 12.731496 -0.657125 1.813965 30.578740 0.000001 -0.000002 0.000001 0.000000 -0.000001 -0.000000 2.428294 -7.403144 21.763757 -0.989698 3.764143 37.430953 -0.000000 -0.000000 -0.000000 0.000001 0.000002 0.000000 3.481035 -10.055111 24.322717 -1.458312 7.871839 41.091760 0.000003 -0.000001 0.000000 0.000001 -0.000001 0.000001 -77.817042 -8.146243 25.338528 118.548615 -9.539239 -4.626691 11.422235 -0.963785 -18.079857 -1.476140 -0.000006 0.000004 0.000001 0.000000 -0.000000 -78.604570 -16.861116 -17.319662 127.491696 0.959522 -6.705736 32.822317 4.612145 22.774219 2.803029 -0.000005 0.000010 -0.000001 -0.000001 -0.000001 
-1.634968 73.539993 10.425430 -22.428034 -34.499388 -0.006424 13.933915 -0.414901 -3.669237 27.841402 -1.663995 -5.584874 27.841403 -1.663999 -5.584872 0.820269 4.698909 -6.284302 2.481057 8.530033 1.436555 0.000000 -0.000001 0.000003 -3.963593 0.396506 0.228251 -28.930294 5.249727 8.005233 -7.880557 -18.771465 -8.853619 -0.267374 -16.013437 34.655485 8.443886 3.587146 -5.700445 -0.335200 0.032518 0.783607 0.000011 -0.000012 0.000012 -0.000002 -0.000001 -0.000000 -0.939689 -7.534051 -3.729279 0.035315 0.809947 -16.396113 -0.000001 0.000010 0.000000 0.000001 -0.000000 0.000000 1.798398 9.039670 -13.355500 -0.412795 -1.456114 -20.803949 -0.000002 0.000012 0.000000 -0.000000 -0.000001 0.000001 2.582407 14.852294 -29.585094 -0.521509 -2.621950 -30.270422 0.000002 0.000002 0.000007 -0.000001 -0.000002 0.000001 4.235802 18.582935 -33.127698 -0.680904 -5.757184 -37.483665 0.000002 -0.000003 0.000001 -0.000001 -0.000001 0.000001 -5.328247 -12.696079 -1.621587 -23.691179 -13.099186 -4.299585 1.760237 31.815656 0.499543 8.010391 3.181659 -34.195414 -9.480904 -3.688976 -0.202496 7.348571 -17.950280 -2.837153 0.000006 0.000004 -0.000011 -0.000001 0.000002 0.000000 -1.140964 -0.466297 4.442431 0.143071 -1.118630 16.925665 -0.000001 0.000000 -0.000001 -0.000002 0.000000 0.000001 -0.649190 -2.969191 11.918964 -0.624433 1.751067 29.779980 0.000002 -0.000003 -0.000000 -0.000002 -0.000000 -0.000001 2.472597 -7.513480 20.513858 -0.926154 3.678148 36.182234 -0.000001 0.000000 -0.000002 -0.000001 -0.000001 0.000001 3.926329 -10.624533 23.133873 -1.342621 7.734898 38.756327 0.000001 -0.000003 0.000001 0.000002 -0.000003 -0.000001 -76.600271 -3.769343 21.772543 115.111036 -7.851699 -2.822969 11.235579 -0.878958 -16.708193 -1.683551 -0.117069 0.459368 -0.000003 -0.000000 -0.000000 -71.433670 -10.746482 -20.762643 124.198288 7.611053 -2.154161 29.566806 3.642256 23.029962 3.066486 -0.228324 -0.018177 -0.000001 0.000001 0.000001 
-0.293148 73.052040 9.477608 -17.389050 -34.288233 2.398757 12.587063 -0.451967 -3.129644 25.158934 -1.752409 -4.355108 25.158937 -1.752417 -4.355099 -0.485108 4.935029 -5.751547 3.552169 9.981394 0.627412 0.000001 0.000000 -0.000001 -3.799948 -0.718128 -0.001065 -30.081010 3.260774 10.270286 -4.785695 -21.856624 -8.447876 2.231580 -15.163264 32.171386 7.414735 1.810854 -6.053154 -0.335198 0.032522 0.783607 0.000009 -0.000010 0.000011 -0.000002 -0.000002 0.000000 -0.993025 -8.338086 -3.604027 0.035863 0.811825 -16.354845 0.000001 0.000011 0.000000 0.000001 -0.000001 0.000000 1.628941 8.104588 -11.642668 -0.354568 -1.297953 -19.259132 -0.000001 0.000015 -0.000001 -0.000001 -0.000001 -0.000001 2.563576 14.785867 -27.058660 -0.447072 -2.489962 -27.779184 0.000001 0.000005 0.000008 0.000001 0.000002 0.000001 4.331555 18.712350 -30.471318 -0.645542 -5.710930 -34.772961 0.000003 0.000004 0.000005 0.000000 0.000004 0.000001 -5.045791 -11.936648 -0.937740 -22.641097 -11.400542 -7.495930 10.229102 34.014871 -2.255073 13.779933 1.098051 -34.009298 -10.344643 -1.935449 0.080575 6.558714 -16.173642 -2.788051 0.000001 0.000001 -0.000011 -0.000003 -0.000002 0.000001 -1.222572 0.616444 4.314748 0.142691 -1.117538 16.895308 0.000007 -0.000000 0.000001 -0.000002 -0.000001 0.000000 -0.629028 -3.066240 10.735247 -0.575127 1.663047 28.658815 0.000009 -0.000003 0.000001 0.000001 -0.000001 0.000000 2.531989 -7.675968 18.698684 -0.839176 3.554245 34.418512 0.000000 -0.000003 0.000003 -0.000004 0.000002 -0.000001 4.533390 -11.474752 21.434599 -1.186710 7.530359 35.406854 -0.000000 0.000001 0.000000 -0.000000 -0.000001 0.000004 -74.030768 0.320293 18.403779 107.260915 -8.069179 -2.032075 11.585568 -0.950577 -15.699540 -1.736122 -0.233021 0.591019 -0.000001 0.000000 -0.000000 -64.092111 -7.740596 -24.246215 117.971109 13.828939 1.478615 24.983739 2.290386 24.433257 3.193606 -0.642785 -0.071201 0.000001 -0.000005 0.000001 
0.788533 73.219208 8.492554 -11.433123 -33.997263 4.909711 10.862622 -0.647585 -2.748599 21.727836 -2.076414 -3.143822 21.727824 -2.076414 -3.143831 -1.713498 5.281107 -5.528588 6.170670 11.601666 -0.129657 -0.000001 0.000000 0.000001 -3.702325 -1.442326 -0.727544 -31.079615 -0.655561 12.735309 -1.154776 -24.256030 -8.354947 3.323600 -13.179973 30.161880 6.170354 -0.302905 -6.511079 -0.335199 0.032520 0.783607 0.000011 -0.000012 0.000012 -0.000000 -0.000000 0.000000 -1.055019 -9.297611 -3.460771 0.037527 0.817183 -16.310119 -0.000003 0.000011 -0.000000 -0.000001 0.000000 -0.000000 1.497758 6.972995 -9.615980 -0.290363 -1.107213 -17.415627 -0.000001 0.000014 -0.000001 -0.000001 -0.000000 -0.000000 2.555462 14.698511 -24.045848 -0.365891 -2.328195 -24.803369 0.000002 0.000003 0.000007 0.000002 0.000002 0.000000 4.435272 18.872707 -27.293595 -0.606350 -5.653501 -31.535721 0.000000 -0.000002 0.000003 -0.000002 -0.000000 -0.000000 -4.610683 -10.789804 0.507269 -20.314396 -8.632673 -9.822164 18.805348 34.944788 -3.318299 16.626738 -0.485664 -37.293543 -11.383610 0.152370 0.458718 5.622938 -14.050005 -2.697610 0.000002 0.000001 -0.000012 -0.000000 -0.000003 -0.000001 -1.321841 1.910706 4.168840 0.142250 -1.116361 16.862620 0.000004 0.000001 0.000001 -0.000002 0.000000 0.000000 -0.607092 -3.181513 9.325339 -0.518574 1.556361 27.316824 0.000007 -0.000003 -0.000000 0.000001 -0.000000 0.000002 2.595848 -7.872419 16.533325 -0.740108 3.402261 32.308222 0.000001 -0.000000 0.000001 -0.000002 0.000000 -0.000002 5.198920 -12.534422 19.411362 -1.016989 7.274363 31.407833 0.000002 -0.000000 0.000001 0.000001 -0.000002 0.000002 -69.584724 2.397426 16.482396 95.802221 -8.722119 -2.743394 12.434084 -1.183821 -14.757042 -1.350724 -0.172957 0.028044 0.000000 0.000001 0.000000 -56.082875 -6.438186 -28.724402 108.043682 19.169744 6.102076 20.696289 0.411850 25.089742 4.098271 -0.398582 -0.106198 -0.000000 -0.000000 0.000000 
1.825913 74.586342 7.666409 -5.358889 -33.692299 6.613251 8.899450 -0.606778 -2.596102 17.818579 -2.083637 -2.194916 17.818574 -2.083625 -2.194919 -2.727664 5.477509 -5.383294 10.424563 12.972455 -0.323206 -0.000001 -0.000001 0.000000 -3.690168 -1.834601 -2.476535 -32.458008 -6.457202 14.042636 3.482606 -26.328976 -7.620182 3.787750 -10.135398 29.510191 4.814893 -2.547240 -7.039385 -0.335200 0.032520 0.783609 0.000012 -0.000012 0.000012 0.000001 -0.000000 0.000001 -1.119017 -10.316851 -3.327106 0.038367 0.819939 -16.276310 -0.000003 0.000011 0.000000 -0.000001 0.000000 -0.000000 1.443758 5.746212 -7.483872 -0.228771 -0.902025 -15.453755 -0.000001 0.000012 -0.000001 0.000001 0.000001 -0.000000 2.563731 14.591787 -20.840328 -0.288544 -2.151107 -21.627775 0.000003 -0.000000 0.000008 0.000000 -0.000000 0.000001 4.529911 19.047502 -23.894363 -0.568113 -5.589959 -28.083779 0.000002 -0.000001 0.000002 0.000000 0.000001 -0.000001 -4.088593 -9.612619 2.518445 -16.915976 -5.468274 -10.084797 24.855325 36.190430 -2.474887 15.577612 -2.106971 -42.696209 -12.491738 2.372949 0.913356 4.625565 -11.782903 -2.561600 0.000007 0.000003 -0.000012 0.000004 0.000002 0.000002 -1.429424 3.294095 4.030387 0.141973 -1.115474 16.837967 0.000001 0.000001 0.000001 -0.000001 -0.000000 0.000000 -0.586721 -3.301724 7.833514 -0.460789 1.440387 25.876568 0.000006 -0.000004 0.000001 0.000001 -0.000000 -0.000000 2.654703 -8.084403 14.231982 -0.640042 3.235106 30.045661 0.000002 0.000001 0.000001 0.000001 -0.000000 0.000002 5.833055 -13.716281 17.259765 -0.856455 6.988647 27.142625 0.000001 0.000001 0.000000 0.000001 0.000000 -0.000001 -62.140214 3.356435 14.523489 78.535489 -8.374537 -3.253247 13.798381 -1.565994 -15.926843 -0.600295 0.060741 -0.983941 0.000000 0.000002 0.000001 -42.488097 -7.545664 -36.276945 90.663849 21.467802 14.130452 13.516364 -2.077857 24.879673 2.544035 0.316618 -1.805347 -0.000001 -0.000003 -0.000000 
2.455067 78.152428 7.846354 -1.771165 -33.568017 6.478971 7.399185 -0.121286 -1.913329 14.803663 -1.555790 -1.559666 14.803644 -1.555779 -1.559673 -3.592723 5.091667 -4.563046 15.594869 13.632334 0.054075 -0.000000 0.000000 -0.000000 -3.713015 -2.214180 -4.949177 -34.929659 -10.043328 13.710961 8.191828 -29.923124 -6.147589 5.096598 -7.362329 29.475825 3.458306 -4.718195 -7.588008 -0.335199 0.032519 0.783605 0.000013 -0.000012 0.000012 -0.000003 -0.000000 -0.000000 -1.179346 -11.299827 -3.230639 0.038684 0.820976 -16.268196 0.000000 0.000010 -0.000000 -0.000003 -0.000000 -0.000000 1.476862 4.530988 -5.449435 -0.176406 -0.701404 -13.554490 0.000001 0.000013 -0.000001 0.000001 0.000000 -0.000001 2.588062 14.469607 -17.734931 -0.222645 -1.975055 -18.538028 0.000001 0.000002 0.000006 -0.000001 -0.000000 0.000000 4.601850 19.216959 -20.575180 -0.534678 -5.526117 -24.729989 0.000002 0.000000 0.000003 -0.000000 -0.000000 -0.000000 -3.503343 -8.663777 4.996466 -13.176576 -3.192087 -8.057204 27.307523 40.183943 -1.185977 11.656296 -4.376280 -48.333704 -13.558968 4.526923 1.409366 3.653799 -9.572478 -2.391457 0.000001 0.000001 -0.000013 0.000002 0.000001 -0.000001 -1.534993 4.644351 3.924209 0.141883 -1.115272 16.832038 0.000005 0.000000 0.000002 0.000002 -0.000000 0.000000 -0.570311 -3.413411 6.404152 -0.406858 1.324920 24.460528 -0.000000 -0.000002 0.000000 -0.000002 -0.000000 0.000000 2.702078 -8.292169 12.009249 -0.548077 3.066943 27.824738 -0.000004 -0.000000 0.000001 0.000000 -0.000000 0.000001 6.370097 -14.914871 15.172461 -0.721418 6.699587 22.993338 -0.000001 0.000002 -0.000000 -0.000002 -0.000001 -0.000000 -51.146086 2.315109 10.414766 58.499218 -8.674644 -1.752138 12.324536 -1.466826 -17.682663 -4.544108 -0.065000 2.467675 0.000001 -0.000001 -0.000001 -25.669128 -17.529585 -39.269172 66.932336 18.106046 17.397776 -7.540230 -4.330546 15.978980 -32.476228 10.198266 -13.976917 -0.000000 0.000000 -0.000000 
